<?xml version="1.0" encoding="UTF-8" standalone="no"?>
<!-- Created with Inkscape (http://www.inkscape.org/) -->

<svg
   xmlns:dc="http://purl.org/dc/elements/1.1/"
   xmlns:cc="http://creativecommons.org/ns#"
   xmlns:rdf="http://www.w3.org/1999/02/22-rdf-syntax-ns#"
   xmlns:svg="http://www.w3.org/2000/svg"
   xmlns="http://www.w3.org/2000/svg"
   xmlns:sodipodi="http://sodipodi.sourceforge.net/DTD/sodipodi-0.dtd"
   xmlns:inkscape="http://www.inkscape.org/namespaces/inkscape"
   width="297mm"
   height="75mm"
   viewBox="0 0 297 75"
   version="1.1"
   id="svg8"
   inkscape:version="0.92.2 (5c3e80d, 2017-08-06)"
   sodipodi:docname="VIRM.svg">
  <defs
     id="defs2">
    <clipPath
       clipPathUnits="userSpaceOnUse"
       id="clipPath828">
      <rect
         style="opacity:1;fill:#ececec;fill-opacity:0.39215686;stroke:#afafaf;stroke-width:0.26458332;stroke-opacity:1"
         id="rect830"
         width="284.5401"
         height="77.75943"
         x="7.429245"
         y="107.30661" />
    </clipPath>
    <clipPath
       clipPathUnits="userSpaceOnUse"
       id="clipPath4708">
      <path
         sodipodi:nodetypes="cccsccccccc"
         inkscape:connector-curvature="0"
         id="path4710"
         d="m 7.7026828,158.09478 c 0.4952828,-0.24764 14.3993212,-3.7982 14.3993212,-3.7982 l 8.729363,-7.92453 c 0,0 28.664506,0.37147 31.388563,0.68102 2.724055,0.30955 40.73703,6.81014 40.73703,6.81014 l 177.65182,-0.35289 -0.5056,31.54953 -269.788911,0.30336 -0.10112,-4.24705 -2.5009309,-0.11593 c 0,-5.38669 -0.00954,-18.47151 -0.00954,-22.90545 z"
         style="fill:#323232;fill-opacity:1;stroke:#000000;stroke-width:0.2;stroke-linecap:butt;stroke-linejoin:miter;stroke-miterlimit:4;stroke-dasharray:none;stroke-opacity:1" />
    </clipPath>
    <clipPath
       clipPathUnits="userSpaceOnUse"
       id="clipPath4726">
      <path
         sodipodi:nodetypes="cccscccccccc"
         inkscape:connector-curvature="0"
         id="path4728"
         d="m 7.7026828,158.09478 c 0.4952828,-0.24764 14.3993212,-3.7982 14.3993212,-3.7982 l 8.729363,-7.92453 c 0,0 28.664506,0.37147 31.388563,0.68102 2.724055,0.30955 40.73703,6.81014 40.73703,6.81014 L 280,153.51032 v 31.54953 l -269.685731,0.30336 -0.10112,-4.24705 -2.5009309,-0.11593 c 0,-5.38669 -0.00954,-18.47151 -0.00954,-22.90545 z"
         style="fill:#323232;fill-opacity:1;stroke:#000000;stroke-width:0.2;stroke-linecap:butt;stroke-linejoin:miter;stroke-miterlimit:4;stroke-dasharray:none;stroke-opacity:1" />
    </clipPath>
    <clipPath
       clipPathUnits="userSpaceOnUse"
       id="clipPath4879">
      <rect
         y="156.47021"
         x="17.683666"
         height="18.739681"
         width="290.81464"
         id="rect4881"
         style="opacity:1;fill:#4b4b4b;fill-opacity:1;stroke:none;stroke-width:0.05329723;stroke-miterlimit:4;stroke-dasharray:none;stroke-opacity:1"
         ry="9.3698406" />
    </clipPath>
    <clipPath
       clipPathUnits="userSpaceOnUse"
       id="clipPath4911">
      <rect
         clip-path="url(#clipPath4726)"
         ry="0"
         y="155.35098"
         x="10.314268"
         height="30.012222"
         width="269.61441"
         id="rect4913"
         style="opacity:1;fill:#ffac00;fill-opacity:1;stroke:none;stroke-width:5.15779829;stroke-miterlimit:4;stroke-dasharray:none;stroke-opacity:1" />
    </clipPath>
    <clipPath
       clipPathUnits="userSpaceOnUse"
       id="clipPath4919">
      <rect
         style="opacity:1;fill:#ffac00;fill-opacity:1;stroke:none;stroke-width:0.2;stroke-miterlimit:4;stroke-dasharray:none;stroke-opacity:1"
         id="rect4921"
         width="6.7854733"
         height="27.054338"
         x="3.4146252"
         y="155.29306"
         clip-path="url(#clipPath4708)" />
    </clipPath>
    <clipPath
       clipPathUnits="userSpaceOnUse"
       id="clipPath1726">
      <rect
         y="133.02477"
         x="46.061317"
         height="17"
         width="239.34552"
         id="rect1728"
         style="opacity:1;fill:#ff00ff;fill-opacity:1;stroke:none;stroke-width:1.45951331;stroke-miterlimit:4;stroke-dasharray:none;stroke-opacity:1"
         ry="3.0955226" />
    </clipPath>
    <clipPath
       clipPathUnits="userSpaceOnUse"
       id="clipPath1887">
      <rect
         style="opacity:1;fill:#e39a00;fill-opacity:1;stroke:#4d4d4d;stroke-width:0.16500001;stroke-miterlimit:4;stroke-dasharray:none;stroke-opacity:1"
         id="rect1889"
         width="279.58725"
         height="52.995281"
         x="8.6674528"
         y="236.08018"
         ry="0.23699126" />
    </clipPath>
    <clipPath
       clipPathUnits="userSpaceOnUse"
       id="clipPath1043">
      <path
         sodipodi:nodetypes="cccscccccccc"
         inkscape:connector-curvature="0"
         id="path1045"
         d="m 19.068396,277.18868 0.247641,-16.83962 3.466981,-10.64859 c 0,0 5.448114,-6.43868 13.867925,-9.65802 8.419812,-3.21934 15.106132,-3.21934 15.106132,-3.21934 l 234.516505,0.18573 v 39.43691 H 241.20283 L 236.25,282.88443 H 71.073113 l -4.457546,-5.69575 z"
         style="fill:none;stroke:#000000;stroke-width:0.26458332px;stroke-linecap:butt;stroke-linejoin:miter;stroke-opacity:1" />
    </clipPath>
    <clipPath
       clipPathUnits="userSpaceOnUse"
       id="clipPath1150">
      <path
         sodipodi:nodetypes="cccscccccccc"
         inkscape:connector-curvature="0"
         id="path1152"
         d="m 19.068396,277.18868 0.247641,-16.83962 3.466981,-10.64859 c 0,0 5.448114,-6.43868 13.867925,-9.65802 8.419812,-3.21934 15.106132,-3.21934 15.106132,-3.21934 l 234.516505,0.18573 v 39.43691 H 241.20283 L 236.25,282.88443 H 71.073113 l -4.457546,-5.69575 z"
         style="fill:#ffae01;fill-opacity:1;stroke:none;stroke-width:0.26458332px;stroke-linecap:butt;stroke-linejoin:miter;stroke-opacity:1" />
    </clipPath>
    <clipPath
       clipPathUnits="userSpaceOnUse"
       id="clipPath1356">
      <rect
         style="opacity:1;fill:#363636;fill-opacity:1;stroke:#2b2b2b;stroke-width:0.065;stroke-miterlimit:4;stroke-dasharray:none;stroke-opacity:1"
         id="rect1358"
         width="319.38669"
         height="88.578995"
         x="-4.5325623"
         y="202.60017" />
    </clipPath>
    <clipPath
       clipPathUnits="userSpaceOnUse"
       id="clipPath1366">
      <rect
         style="opacity:1;fill:#363636;fill-opacity:1;stroke:#2b2b2b;stroke-width:0.07147317;stroke-miterlimit:4;stroke-dasharray:none;stroke-opacity:1"
         id="rect1368"
         width="313.33426"
         height="76.224312"
         x="1.5198715"
         y="214.95485" />
    </clipPath>
    <clipPath
       clipPathUnits="userSpaceOnUse"
       id="clipPath1327">
      <path
         inkscape:connector-curvature="0"
         id="path1329"
         d="m 22.088162,286.50705 0.256505,-2.05204 c 0,0 1.923783,-1.79553 1.603153,-4.80945 -0.320631,-3.01393 -2.500918,-7.05388 -2.500918,-7.05388 l 0.32063,-1.85966 c 0,0 1.731405,-3.78344 4.232323,-7.75925 2.500919,-3.97582 6.797368,-9.29829 7.887513,-10.13193 1.090144,-0.83364 3.719314,-2.37267 4.873585,-2.56505 1.154269,-0.19237 24.880927,0 24.880927,0 l 5.450721,-4.29645 H 235.30738 v 2.00874 h 48.83549 v 31.7408 h -52.87111 l -5.89472,4.80646 H 72.20498 l -6.43885,-5.16921 H 40.464174 v -1.08825 h -4.5344 v 2.08582 l 0.544129,0.90688 -5.259904,3.99027 c 0,0 -2.992707,0.63482 -5.259906,0.99757 -2.267201,0.36275 -3.865931,0.24863 -3.865931,0.24863 z"
         style="fill:#ffac00;fill-opacity:1;stroke:none;stroke-width:0.25650445px;stroke-linecap:butt;stroke-linejoin:miter;stroke-opacity:1" />
    </clipPath>
    <clipPath
       clipPathUnits="userSpaceOnUse"
       id="clipPath1345">
      <rect
         style="opacity:1;fill:#5c7ba3;fill-opacity:1;stroke:none;stroke-width:0.204;stroke-miterlimit:4;stroke-dasharray:none;stroke-opacity:1"
         id="rect1347"
         width="23.615625"
         height="15.571876"
         x="43.003124"
         y="255.59531"
         ry="0.32814151" />
    </clipPath>
    <clipPath
       clipPathUnits="userSpaceOnUse"
       id="clipPath1233">
      <path
         style="fill:#003374;fill-opacity:1;stroke:none;stroke-width:0.26458332px;stroke-linecap:butt;stroke-linejoin:miter;stroke-opacity:1"
         d="m 79.28315,247.59961 h 209.8278 v 8.09883 l -203.188333,0.0158 z"
         id="path1235"
         inkscape:connector-curvature="0" />
    </clipPath>
  </defs>
  <sodipodi:namedview
     id="base"
     pagecolor="#ffffff"
     bordercolor="#666666"
     borderopacity="1.0"
     inkscape:pageopacity="0.0"
     inkscape:pageshadow="2"
     inkscape:zoom="0.64141414"
     inkscape:cx="579.86456"
     inkscape:cy="538.39248"
     inkscape:document-units="mm"
     inkscape:current-layer="layer1"
     showgrid="false"
     inkscape:window-width="1920"
     inkscape:window-height="1017"
     inkscape:window-x="1912"
     inkscape:window-y="-8"
     inkscape:window-maximized="1"
     inkscape:snap-global="false"
     showguides="true"
     inkscape:lockguides="true" />
  <metadata
     id="metadata5">
    <rdf:RDF>
      <cc:Work
         rdf:about="">
        <dc:format>image/svg+xml</dc:format>
        <dc:type
           rdf:resource="http://purl.org/dc/dcmitype/StillImage" />
        <dc:title />
      </cc:Work>
    </rdf:RDF>
  </metadata>
  <g
     inkscape:label="Layer 1"
     inkscape:groupmode="layer"
     id="layer1"
     transform="translate(0,-222)">
    <g
       id="g3582">
      <path
         style="fill:#2e2e2e;fill-opacity:1;stroke:none;stroke-width:0.26458332px;stroke-linecap:butt;stroke-linejoin:miter;stroke-opacity:1"
         d="m 232.27608,284.23385 0.52917,4.0349 14.08906,2.3151 h 9.12812 l 14.08907,-4.6302 1.71979,-12.96459 -34.26354,-5.88698 -7.14375,9.19427 z"
         id="path1138"
         inkscape:connector-curvature="0" />
      <path
         inkscape:connector-curvature="0"
         id="path1136"
         d="m 32.676041,284.23385 0.529167,4.0349 14.089062,2.3151 h 9.128122 l 14.089063,-4.6302 1.719791,-12.96459 -34.263538,-5.88698 -7.14375,9.19427 z"
         style="fill:#2e2e2e;stroke:none;stroke-width:0.26458332px;stroke-linecap:butt;stroke-linejoin:miter;stroke-opacity:1;fill-opacity:1" />
      <rect
         ry="0.45538005"
         y="279.02512"
         x="35.439308"
         height="2.4792931"
         width="33.543377"
         id="rect1315"
         style="opacity:1;fill:#121212;fill-opacity:1;stroke:none;stroke-width:0.24031815;stroke-miterlimit:4;stroke-dasharray:none;stroke-opacity:1" />
      <path
         inkscape:connector-curvature="0"
         id="path1372"
         d="m 21.767532,270.73202 c 0,0 -1.4749,-0.38475 0.128253,-4.29645 1.603152,-3.91168 6.733241,-14.55662 9.554789,-18.34006 2.82155,-3.78344 4.296451,-4.29645 6.091982,-4.48883 1.795531,-0.19238 14.364249,0 14.364249,0 l 6.156106,-3.91169 H 237.89198 v 3.668 h 43.16751 v -3.62752 h 3.35544 v 10.24775 l -245.220388,3.26476 -12.78701,17.4121 z"
         style="fill:#4b4b4b;fill-opacity:1;stroke:none;stroke-width:0.25650445px;stroke-linecap:butt;stroke-linejoin:miter;stroke-opacity:1" />
      <path
         inkscape:connector-curvature="0"
         id="path1154"
         d="m 72.204979,284.53534 4.215585,3.93297 H 221.24045 l 4.13659,-3.93297 -45.55537,-17.21394 -105.442877,7.1462 z"
         style="fill:#323232;stroke:none;stroke-width:0.26458332px;stroke-linecap:butt;stroke-linejoin:miter;stroke-opacity:1;fill-opacity:1" />
      <path
         inkscape:connector-curvature="0"
         id="path1499"
         d="m 24.829679,278.8178 h -7.198125 v 2.07399 h 10.66389 z"
         style="fill:#161616;fill-opacity:1;stroke:#161616;stroke-width:0.38823402px;stroke-linecap:butt;stroke-linejoin:miter;stroke-opacity:1" />
      <rect
         style="opacity:1;fill:#121212;fill-opacity:1;stroke:none;stroke-width:0.27659497;stroke-miterlimit:4;stroke-dasharray:none;stroke-opacity:1"
         id="rect1317"
         width="44.434685"
         height="2.4792931"
         x="227.21992"
         y="278.87927"
         ry="0.45538005" />
      <path
         inkscape:connector-curvature="0"
         id="path1370"
         d="m 22.023709,286.46838 0.256505,-2.05204 c 0,0 1.923783,-1.79553 1.603153,-4.80945 -0.320631,-3.01393 -2.500918,-7.05388 -2.500918,-7.05388 l 0.32063,-1.85966 c 0,0 1.731405,-3.78344 4.232323,-7.75925 2.500918,-3.97582 6.797368,-9.29829 7.887512,-10.13193 1.090145,-0.83364 3.719315,-2.37267 4.873585,-2.56505 1.15427,-0.19237 24.880929,0 24.880929,0 l 5.45072,-4.29645 H 235.24293 v 2.00874 h 48.8355 v 31.7408 h -52.87112 l -5.89472,4.80646 H 72.140526 l -6.438849,-5.16921 H 40.399721 v -1.08825 h -4.5344 v 2.08582 l 0.544128,0.90688 -5.259904,3.99027 c 0,0 -2.992705,0.63482 -5.259905,0.99757 -2.267201,0.36275 -3.865931,0.24863 -3.865931,0.24863 z"
         style="fill:#ffac00;fill-opacity:1;stroke:none;stroke-width:0.25650445px;stroke-linecap:butt;stroke-linejoin:miter;stroke-opacity:1" />
      <path
         clip-path="url(#clipPath1233)"
         style="fill:#003374;fill-opacity:1;stroke:none;stroke-width:0.25650445px;stroke-linecap:butt;stroke-linejoin:miter;stroke-opacity:1"
         d="m 22.023709,286.46838 0.256505,-2.05204 c 0,0 1.923783,-1.79553 1.603153,-4.80945 -0.320631,-3.01393 -2.500918,-7.05388 -2.500918,-7.05388 l 0.32063,-1.85966 c 0,0 1.731405,-3.78344 4.232323,-7.75925 2.500918,-3.97582 6.797368,-9.29829 7.887512,-10.13193 1.090145,-0.83364 3.719315,-2.37267 4.873585,-2.56505 1.15427,-0.19237 24.880929,0 24.880929,0 l 5.45072,-4.29645 H 235.24293 v 2.00874 h 48.8355 v 31.7408 h -52.87112 l -5.89472,4.80646 H 72.140526 l -6.438849,-5.16921 H 40.399721 v -1.08825 h -4.5344 v 2.08582 l 0.544128,0.90688 -5.259904,3.99027 c 0,0 -2.992705,0.63482 -5.259905,0.99757 -2.267201,0.36275 -3.865931,0.24863 -3.865931,0.24863 z"
         id="path1231"
         inkscape:connector-curvature="0" />
      <rect
         transform="matrix(1,0,0,0.89749061,0,26.526529)"
         clip-path="url(#clipPath1327)"
         ry="2.3070915"
         y="258.7717"
         x="228.83263"
         height="11.381652"
         width="130.82672"
         id="rect1323"
         style="opacity:1;fill:#003374;fill-opacity:1;stroke:none;stroke-width:0.15084009;stroke-miterlimit:4;stroke-dasharray:none;stroke-opacity:1" />
      <rect
         style="opacity:1;fill:#003374;fill-opacity:1;stroke:none;stroke-width:0.14384432;stroke-miterlimit:4;stroke-dasharray:none;stroke-opacity:1"
         id="rect1321"
         width="130.82672"
         height="10.350402"
         x="81.363869"
         y="268.05295"
         ry="2.0980544" />
      <path
         inkscape:connector-curvature="0"
         id="path1501"
         d="m 17.675492,277.78737 c 0,0 -0.247641,1.1763 -0.247641,2.10496 0,0.92865 0.278596,1.91922 0.278596,1.91922"
         style="fill:none;stroke:#141414;stroke-width:0.365;stroke-linecap:butt;stroke-linejoin:miter;stroke-miterlimit:4;stroke-dasharray:none;stroke-opacity:1" />
      <g
         transform="translate(0,-0.09921874)"
         id="g1517">
        <circle
           style="opacity:1;fill:#4c4c4c;fill-opacity:1;stroke:none;stroke-width:0.36500001;stroke-miterlimit:4;stroke-dasharray:none;stroke-opacity:1"
           id="path1503"
           cx="39.92004"
           cy="287.20123"
           r="5.4489574" />
        <circle
           r="4.6585317"
           cy="287.20123"
           cx="39.92004"
           id="circle1509"
           style="opacity:1;fill:#282828;fill-opacity:1;stroke:none;stroke-width:0.31205311;stroke-miterlimit:4;stroke-dasharray:none;stroke-opacity:1" />
      </g>
      <g
         transform="translate(23.944791,-0.09921874)"
         id="g1523">
        <circle
           r="5.4489574"
           cy="287.20123"
           cx="39.92004"
           id="circle1519"
           style="opacity:1;fill:#4c4c4c;fill-opacity:1;stroke:none;stroke-width:0.36500001;stroke-miterlimit:4;stroke-dasharray:none;stroke-opacity:1" />
        <circle
           style="opacity:1;fill:#282828;fill-opacity:1;stroke:none;stroke-width:0.31205311;stroke-miterlimit:4;stroke-dasharray:none;stroke-opacity:1"
           id="circle1521"
           cx="39.92004"
           cy="287.20123"
           r="4.6585317" />
      </g>
      <g
         id="g1145"
         transform="translate(197.48337,-0.09921874)">
        <circle
           r="5.4489574"
           cy="287.20123"
           cx="39.92004"
           id="circle1141"
           style="opacity:1;fill:#4c4c4c;fill-opacity:1;stroke:none;stroke-width:0.36500001;stroke-miterlimit:4;stroke-dasharray:none;stroke-opacity:1" />
        <circle
           style="opacity:1;fill:#282828;fill-opacity:1;stroke:none;stroke-width:0.31205311;stroke-miterlimit:4;stroke-dasharray:none;stroke-opacity:1"
           id="circle1143"
           cx="39.92004"
           cy="287.20123"
           r="4.6585317" />
      </g>
      <g
         id="g1151"
         transform="translate(225.26462,-0.09921874)">
        <circle
           style="opacity:1;fill:#4c4c4c;fill-opacity:1;stroke:none;stroke-width:0.36500001;stroke-miterlimit:4;stroke-dasharray:none;stroke-opacity:1"
           id="circle1147"
           cx="39.92004"
           cy="287.20123"
           r="5.4489574" />
        <circle
           r="4.6585317"
           cy="287.20123"
           cx="39.92004"
           id="circle1149"
           style="opacity:1;fill:#282828;fill-opacity:1;stroke:none;stroke-width:0.31205311;stroke-miterlimit:4;stroke-dasharray:none;stroke-opacity:1" />
      </g>
      <rect
         clip-path="url(#clipPath1345)"
         ry="2.0980544"
         y="258.56546"
         x="44.238869"
         height="10.350402"
         width="25.16024"
         id="rect1335"
         style="opacity:1;fill:#003374;fill-opacity:1;stroke:none;stroke-width:0.06308148;stroke-miterlimit:4;stroke-dasharray:none;stroke-opacity:1" />
      <rect
         ry="0.65481031"
         y="255.27924"
         x="47.707607"
         height="22.778044"
         width="13.751017"
         id="rect1153"
         style="opacity:1;fill:none;fill-opacity:1;stroke:#4b4b4b;stroke-width:0.165;stroke-miterlimit:4;stroke-dasharray:none;stroke-opacity:1" />
      <rect
         style="opacity:1;fill:#1a1a1a;fill-opacity:1;stroke:none;stroke-width:0.15764192;stroke-miterlimit:4;stroke-dasharray:none;stroke-opacity:1"
         id="rect1155"
         width="13.745085"
         height="1.6058588"
         x="47.710575"
         y="278.13226"
         ry="0.39333099" />
      <path
         inkscape:connector-curvature="0"
         id="path1157"
         d="M 54.629888,278.0105 V 255.27923"
         style="fill:none;stroke:#4b4b4b;stroke-width:0.165;stroke-linecap:butt;stroke-linejoin:miter;stroke-opacity:1;stroke-miterlimit:4;stroke-dasharray:none" />
      <rect
         style="opacity:1;fill:#5c7ba3;fill-opacity:1;stroke:#4b4b4b;stroke-width:0.1899143;stroke-miterlimit:4;stroke-dasharray:none;stroke-opacity:1"
         id="rect1161"
         width="3.6607502"
         height="9.2595444"
         x="56.213882"
         y="259.2088"
         ry="1.5073739" />
      <rect
         style="opacity:1;fill:none;fill-opacity:1;stroke:#4b4b4b;stroke-width:0.16500001;stroke-miterlimit:4;stroke-dasharray:none;stroke-opacity:1"
         id="rect1163"
         width="13.751017"
         height="22.778044"
         x="234.60754"
         y="255.27924"
         ry="0.65481031" />
      <rect
         ry="0.39333099"
         y="278.13226"
         x="234.61052"
         height="1.6058588"
         width="13.745085"
         id="rect1165"
         style="opacity:1;fill:#1a1a1a;fill-opacity:1;stroke:none;stroke-width:0.15764192;stroke-miterlimit:4;stroke-dasharray:none;stroke-opacity:1" />
      <path
         style="fill:none;stroke:#4b4b4b;stroke-width:0.16500001;stroke-linecap:butt;stroke-linejoin:miter;stroke-miterlimit:4;stroke-dasharray:none;stroke-opacity:1"
         d="M 241.52981,278.0105 V 255.27923"
         id="path1167"
         inkscape:connector-curvature="0" />
      <rect
         ry="1.3900588"
         y="248.22707"
         x="88.160744"
         height="6.114511"
         width="5.250268"
         id="rect1156"
         style="opacity:1;fill:#5c7ba3;fill-opacity:1;stroke:#4b4b4b;stroke-width:0.15204488;stroke-miterlimit:4;stroke-dasharray:none;stroke-opacity:1" />
      <rect
         style="opacity:1;fill:#5c7ba3;fill-opacity:1;stroke:#4b4b4b;stroke-width:0.254;stroke-miterlimit:4;stroke-dasharray:none;stroke-opacity:1"
         id="rect1166"
         width="14.919488"
         height="6.0123997"
         x="97.764374"
         y="248.27812"
         ry="1.366845" />
      <rect
         ry="1.366845"
         y="248.27812"
         x="116.98619"
         height="6.0123997"
         width="14.919488"
         id="rect1168"
         style="opacity:1;fill:#5c7ba3;fill-opacity:1;stroke:#4b4b4b;stroke-width:0.25415641;stroke-miterlimit:4;stroke-dasharray:none;stroke-opacity:1" />
      <rect
         style="opacity:1;fill:#5c7ba3;fill-opacity:1;stroke:#4b4b4b;stroke-width:0.25415641;stroke-miterlimit:4;stroke-dasharray:none;stroke-opacity:1"
         id="rect1170"
         width="14.919488"
         height="6.0123997"
         x="136.20799"
         y="248.27812"
         ry="1.366845" />
      <rect
         ry="1.366845"
         y="248.27812"
         x="155.42981"
         height="6.0123997"
         width="14.919488"
         id="rect1173"
         style="opacity:1;fill:#5c7ba3;fill-opacity:1;stroke:#4b4b4b;stroke-width:0.25415641;stroke-miterlimit:4;stroke-dasharray:none;stroke-opacity:1" />
      <rect
         style="opacity:1;fill:#5c7ba3;fill-opacity:1;stroke:#4b4b4b;stroke-width:0.25415641;stroke-miterlimit:4;stroke-dasharray:none;stroke-opacity:1"
         id="rect1175"
         width="14.919488"
         height="6.0123997"
         x="174.65163"
         y="248.27812"
         ry="1.366845" />
      <rect
         ry="1.366845"
         y="248.27812"
         x="193.87344"
         height="6.0123997"
         width="14.919488"
         id="rect1177"
         style="opacity:1;fill:#5c7ba3;fill-opacity:1;stroke:#4b4b4b;stroke-width:0.25415641;stroke-miterlimit:4;stroke-dasharray:none;stroke-opacity:1" />
      <rect
         style="opacity:1;fill:#5c7ba3;fill-opacity:1;stroke:#4b4b4b;stroke-width:0.18363677;stroke-miterlimit:4;stroke-dasharray:none;stroke-opacity:1"
         id="rect1179"
         width="6.0137157"
         height="7.7871051"
         x="106.37229"
         y="269.50861"
         ry="1.7703024" />
      <rect
         ry="1.7463541"
         y="269.56128"
         x="116.48798"
         height="7.6817627"
         width="15.096342"
         id="rect1181"
         style="opacity:1;fill:#5c7ba3;fill-opacity:1;stroke:#4b4b4b;stroke-width:0.28897914;stroke-miterlimit:4;stroke-dasharray:none;stroke-opacity:1" />
      <rect
         style="opacity:1;fill:#5c7ba3;fill-opacity:1;stroke:#4b4b4b;stroke-width:0.28897914;stroke-miterlimit:4;stroke-dasharray:none;stroke-opacity:1"
         id="rect1183"
         width="15.096342"
         height="7.6817627"
         x="135.80956"
         y="269.56131"
         ry="1.7463541" />
      <rect
         ry="1.7463541"
         y="269.56128"
         x="155.13112"
         height="7.6817627"
         width="15.096342"
         id="rect1185"
         style="opacity:1;fill:#5c7ba3;fill-opacity:1;stroke:#4b4b4b;stroke-width:0.28897914;stroke-miterlimit:4;stroke-dasharray:none;stroke-opacity:1" />
      <rect
         style="opacity:1;fill:#5c7ba3;fill-opacity:1;stroke:#4b4b4b;stroke-width:0.28897914;stroke-miterlimit:4;stroke-dasharray:none;stroke-opacity:1"
         id="rect1187"
         width="15.096342"
         height="7.6817627"
         x="174.4527"
         y="269.56131"
         ry="1.7463541" />
      <rect
         ry="1.7463541"
         y="269.56131"
         x="193.77426"
         height="7.6817627"
         width="15.096342"
         id="rect1189"
         style="opacity:1;fill:#5c7ba3;fill-opacity:1;stroke:#4b4b4b;stroke-width:0.28897914;stroke-miterlimit:4;stroke-dasharray:none;stroke-opacity:1" />
      <rect
         ry="1.8521323"
         y="259.74048"
         x="259.53897"
         height="8.1470537"
         width="13.857266"
         id="rect1193"
         style="opacity:1;fill:#5c7ba3;fill-opacity:1;stroke:#4b4b4b;stroke-width:0.28512761;stroke-miterlimit:4;stroke-dasharray:none;stroke-opacity:1" />
      <rect
         style="opacity:1;fill:#323232;fill-opacity:1;stroke:#000000;stroke-width:0.09500029;stroke-miterlimit:4;stroke-dasharray:none;stroke-opacity:1"
         id="rect1285"
         width="8.2055683"
         height="2.1880758"
         x="262.41702"
         y="256.16907"
         ry="1.0940379" />
      <text
         id="text1297"
         y="257.60477"
         x="263.0603"
         style="font-style:normal;font-weight:normal;font-size:10.58333302px;line-height:1.25;font-family:sans-serif;letter-spacing:0px;word-spacing:0px;fill:#9b9600;fill-opacity:0.41960785;stroke:none;stroke-width:0.26458332;"
         xml:space="preserve"><tspan
           style="font-style:normal;font-variant:normal;font-weight:normal;font-stretch:normal;font-size:1.0583334px;line-height:0;font-family:'NS Sign';-inkscape-font-specification:'NS Sign';stroke-width:0.26458332;fill:#9b9600;fill-opacity:0.41960785;"
           y="257.60477"
           x="263.0603"
           id="tspan1295"
           sodipodi:role="line">AMSTERDAM</tspan></text>
      <rect
         style="opacity:1;fill:none;fill-opacity:1;stroke:#4b4b4b;stroke-width:0.204;stroke-miterlimit:4;stroke-dasharray:none;stroke-opacity:1"
         id="rect1299"
         width="5.8640165"
         height="21.089275"
         x="35.790928"
         y="257.07156"
         ry="0.60626256" />
      <rect
         style="opacity:1;fill:#5c7ba3;fill-opacity:1;stroke:#4b4b4b;stroke-width:0.1449427;stroke-miterlimit:4;stroke-dasharray:none;stroke-opacity:1"
         id="rect1301"
         width="3.2005644"
         height="6.1689396"
         x="37.125229"
         y="259.80612"
         ry="1.00425" />
      <path
         inkscape:connector-curvature="0"
         id="path1303"
         d="M 35.0625,275.40761 V 264.41852"
         style="fill:none;stroke:#4b4b4b;stroke-width:0.16500001;stroke-linecap:butt;stroke-linejoin:miter;stroke-miterlimit:4;stroke-dasharray:none;stroke-opacity:1" />
      <path
         style="fill:none;stroke:#4b4b4b;stroke-width:0.16500001;stroke-linecap:butt;stroke-linejoin:miter;stroke-miterlimit:4;stroke-dasharray:none;stroke-opacity:1"
         d="m 42.345622,275.40762 v -10.9891"
         id="path1305"
         inkscape:connector-curvature="0" />
      <path
         inkscape:connector-curvature="0"
         id="path1307"
         d="m 35.986212,278.80636 h 4.703362"
         style="fill:none;stroke:#000000;stroke-width:0.26458332px;stroke-linecap:butt;stroke-linejoin:miter;stroke-opacity:1" />
      <path
         style="fill:none;stroke:#000000;stroke-width:0.26458332px;stroke-linecap:butt;stroke-linejoin:miter;stroke-opacity:1"
         d="M 36.005548,279.66131 H 40.70891"
         id="path1309"
         inkscape:connector-curvature="0" />
      <path
         inkscape:connector-curvature="0"
         id="path1311"
         d="M 35.992658,280.88125 H 40.69602"
         style="fill:none;stroke:#000000;stroke-width:0.26458332px;stroke-linecap:butt;stroke-linejoin:miter;stroke-opacity:1" />
      <rect
         ry="0.32814151"
         y="278.69699"
         x="35.949753"
         height="3.1355765"
         width="4.8127456"
         id="rect1313"
         style="opacity:1;fill:none;fill-opacity:0.41960784;stroke:#000000;stroke-width:0.204;stroke-miterlimit:4;stroke-dasharray:none;stroke-opacity:1" />
      <path
         style="opacity:1;fill:#003474;fill-opacity:1;stroke:none;stroke-width:0.01337223;stroke-miterlimit:4;stroke-dasharray:none;stroke-opacity:1"
         d="m 120.76444,262.92074 -0.90756,-0.90881 0.90456,-0.90074 0.90457,-0.90076 1.16487,0.005 1.16486,0.005 0.0866,0.0312 c 0.1054,0.0379 0.20148,0.0857 0.2782,0.1384 0.0318,0.0217 0.32716,0.30564 0.65659,0.63092 0.47732,0.47129 0.61068,0.59584 0.65668,0.61321 0.0518,0.0195 0.15864,0.0213 1.04568,0.0181 l 0.98799,-0.004 -0.70762,-0.71428 -0.7076,-0.71429 0.51401,-0.004 0.51403,-0.004 0.89247,0.89433 c 0.49087,0.49189 0.89039,0.9003 0.88786,0.90757 -0.002,0.007 -0.40352,0.41936 -0.89108,0.91574 l -0.88643,0.90255 -1.16965,-0.005 -1.16963,-0.005 -0.1071,-0.0361 c -0.188,-0.0635 -0.33396,-0.1662 -0.54115,-0.38085 -0.069,-0.0716 -0.31323,-0.32023 -0.54269,-0.55269 -0.3309,-0.33524 -0.42901,-0.42712 -0.47428,-0.44423 -0.051,-0.0191 -0.16332,-0.0213 -1.05726,-0.0179 l -1.00018,0.004 0.71125,0.71763 0.71125,0.71763 h -0.50579 -0.5058 z m 6.5966,-0.17594 0.34635,-0.35047 -0.38719,-0.009 c -0.21295,-0.005 -0.68119,-0.01 -1.04053,-0.01 -0.73901,-0.002 -0.7411,-0.002 -0.95299,-0.10393 l -0.12433,-0.0596 -0.62122,-0.61011 c -0.34167,-0.33556 -0.6432,-0.62359 -0.67006,-0.64008 l -0.0489,-0.03 -0.95568,-9e-5 -0.95569,-7e-5 -0.34564,0.35714 -0.34564,0.35715 0.11975,0.004 c 0.0658,0.002 0.55233,0.009 1.08102,0.0142 l 0.96129,0.0106 0.11431,0.0428 c 0.0629,0.0235 0.14902,0.0656 0.19144,0.0936 0.0428,0.0282 0.33636,0.30592 0.66007,0.62457 0.3206,0.31563 0.60293,0.58855 0.62736,0.60648 0.0623,0.0456 0.11054,0.0479 1.12458,0.0504 l 0.87529,0.002 z"
         id="path1319"
         inkscape:connector-curvature="0" />
      <rect
         ry="1.5073739"
         y="259.2088"
         x="49.395824"
         height="9.2595444"
         width="3.6607502"
         id="rect1337"
         style="opacity:1;fill:#5c7ba3;fill-opacity:1;stroke:#4b4b4b;stroke-width:0.1899143;stroke-miterlimit:4;stroke-dasharray:none;stroke-opacity:1" />
      <rect
         ry="1.5073739"
         y="259.2088"
         x="243.21405"
         height="9.2595444"
         width="3.6607502"
         id="rect1339"
         style="opacity:1;fill:#5c7ba3;fill-opacity:1;stroke:#4b4b4b;stroke-width:0.1899143;stroke-miterlimit:4;stroke-dasharray:none;stroke-opacity:1" />
      <rect
         style="opacity:1;fill:#5c7ba3;fill-opacity:1;stroke:#4b4b4b;stroke-width:0.1899143;stroke-miterlimit:4;stroke-dasharray:none;stroke-opacity:1"
         id="rect1341"
         width="3.6607502"
         height="9.2595444"
         x="236.39595"
         y="259.2088"
         ry="1.5073739" />
      <rect
         transform="rotate(-39.290262)"
         ry="0"
         y="241.83519"
         x="-116.28356"
         height="10.484761"
         width="20.852297"
         id="rect1384"
         style="opacity:1;fill:#003374;fill-opacity:1;stroke:none;stroke-width:0.05083034;stroke-miterlimit:4;stroke-dasharray:none;stroke-opacity:1" />
      <g
         id="g1218">
        <rect
           style="opacity:1;fill:#003374;fill-opacity:1;stroke:#1b1b1b;stroke-width:0.204;stroke-miterlimit:4;stroke-dasharray:none;stroke-opacity:1"
           id="rect1349"
           width="6.0843749"
           height="6.0843749"
           x="78.297653"
           y="248.325"
           ry="0.32814151" />
        <path
           style="fill:none;stroke:#252525;stroke-width:0.065;stroke-linecap:butt;stroke-linejoin:miter;stroke-miterlimit:4;stroke-dasharray:none;stroke-opacity:1"
           d="m 78.329881,253.97109 h 6.019922"
           id="path1351"
           inkscape:connector-curvature="0" />
        <path
           inkscape:connector-curvature="0"
           id="path1353"
           d="m 78.329881,249.08023 h 6.019922"
           style="fill:none;stroke:#252525;stroke-width:0.065;stroke-linecap:butt;stroke-linejoin:miter;stroke-miterlimit:4;stroke-dasharray:none;stroke-opacity:1" />
        <path
           style="fill:none;stroke:#252525;stroke-width:0.065;stroke-linecap:butt;stroke-linejoin:miter;stroke-miterlimit:4;stroke-dasharray:none;stroke-opacity:1"
           d="m 78.329881,249.4878 h 6.019922"
           id="path1355"
           inkscape:connector-curvature="0" />
        <path
           inkscape:connector-curvature="0"
           id="path1357"
           d="m 78.329881,249.89537 h 6.019922"
           style="fill:none;stroke:#252525;stroke-width:0.065;stroke-linecap:butt;stroke-linejoin:miter;stroke-miterlimit:4;stroke-dasharray:none;stroke-opacity:1" />
        <path
           style="fill:none;stroke:#252525;stroke-width:0.065;stroke-linecap:butt;stroke-linejoin:miter;stroke-miterlimit:4;stroke-dasharray:none;stroke-opacity:1"
           d="m 78.329881,250.30295 h 6.019922"
           id="path1359"
           inkscape:connector-curvature="0" />
        <path
           inkscape:connector-curvature="0"
           id="path1361"
           d="m 78.329881,250.71052 h 6.019922"
           style="fill:none;stroke:#252525;stroke-width:0.065;stroke-linecap:butt;stroke-linejoin:miter;stroke-miterlimit:4;stroke-dasharray:none;stroke-opacity:1" />
        <path
           style="fill:none;stroke:#252525;stroke-width:0.065;stroke-linecap:butt;stroke-linejoin:miter;stroke-miterlimit:4;stroke-dasharray:none;stroke-opacity:1"
           d="m 78.329881,251.11809 h 6.019922"
           id="path1363"
           inkscape:connector-curvature="0" />
        <path
           inkscape:connector-curvature="0"
           id="path1365"
           d="m 78.329881,251.52566 h 6.019922"
           style="fill:none;stroke:#252525;stroke-width:0.065;stroke-linecap:butt;stroke-linejoin:miter;stroke-miterlimit:4;stroke-dasharray:none;stroke-opacity:1" />
        <path
           style="fill:none;stroke:#252525;stroke-width:0.065;stroke-linecap:butt;stroke-linejoin:miter;stroke-miterlimit:4;stroke-dasharray:none;stroke-opacity:1"
           d="m 78.329881,251.93323 h 6.019922"
           id="path1367"
           inkscape:connector-curvature="0" />
        <path
           inkscape:connector-curvature="0"
           id="path1369"
           d="m 78.329881,252.3408 h 6.019922"
           style="fill:none;stroke:#252525;stroke-width:0.065;stroke-linecap:butt;stroke-linejoin:miter;stroke-miterlimit:4;stroke-dasharray:none;stroke-opacity:1" />
        <path
           style="fill:none;stroke:#252525;stroke-width:0.065;stroke-linecap:butt;stroke-linejoin:miter;stroke-miterlimit:4;stroke-dasharray:none;stroke-opacity:1"
           d="m 78.329881,252.74838 h 6.019922"
           id="path1371"
           inkscape:connector-curvature="0" />
        <path
           inkscape:connector-curvature="0"
           id="path1373"
           d="m 78.329881,253.15595 h 6.019922"
           style="fill:none;stroke:#252525;stroke-width:0.065;stroke-linecap:butt;stroke-linejoin:miter;stroke-miterlimit:4;stroke-dasharray:none;stroke-opacity:1" />
        <path
           style="fill:none;stroke:#252525;stroke-width:0.065;stroke-linecap:butt;stroke-linejoin:miter;stroke-miterlimit:4;stroke-dasharray:none;stroke-opacity:1"
           d="m 78.329881,253.56352 h 6.019922"
           id="path1375"
           inkscape:connector-curvature="0" />
        <path
           inkscape:connector-curvature="0"
           id="path1377"
           d="m 78.329881,248.67266 h 6.019922"
           style="fill:none;stroke:#252525;stroke-width:0.065;stroke-linecap:butt;stroke-linejoin:miter;stroke-miterlimit:4;stroke-dasharray:none;stroke-opacity:1" />
      </g>
      <path
         inkscape:connector-curvature="0"
         id="path1386"
         d="m 69.784028,268.91897 h -6.284809 l 1.544963,-5.76589 h 4.242927 l 0.665969,2.48544 -0.16905,3.28045"
         style="fill:#003374;stroke:none;stroke-width:0.26458332px;stroke-linecap:butt;stroke-linejoin:miter;stroke-opacity:1;fill-opacity:1" />
      <text
         id="text1239"
         y="261.67935"
         x="62.341812"
         style="font-style:normal;font-weight:normal;font-size:19.17752075px;line-height:1.25;font-family:sans-serif;letter-spacing:0px;word-spacing:0px;fill:#000000;fill-opacity:1;stroke:none;stroke-width:0.47943801"
         xml:space="preserve"><tspan
           style="font-style:normal;font-variant:normal;font-weight:normal;font-stretch:normal;font-size:2.55700302px;font-family:'NS Sign';-inkscape-font-specification:'NS Sign';fill:#ffffff;fill-opacity:1;stroke-width:0.47943801"
           y="261.67935"
           x="62.341812"
           id="tspan1237"
           sodipodi:role="line">1</tspan></text>
      <text
         xml:space="preserve"
         style="font-style:normal;font-weight:normal;font-size:19.17752075px;line-height:1.25;font-family:sans-serif;letter-spacing:0px;word-spacing:0px;fill:#000000;fill-opacity:1;stroke:none;stroke-width:0.47943801"
         x="62.524113"
         y="267.62238"
         id="text1243"><tspan
           sodipodi:role="line"
           id="tspan1241"
           x="62.524113"
           y="267.62238"
           style="font-style:normal;font-variant:normal;font-weight:normal;font-stretch:normal;font-size:2.55700302px;font-family:'NS Sign';-inkscape-font-specification:'NS Sign';fill:#ffffff;fill-opacity:1;stroke-width:0.47943801">2</tspan></text>
      <text
         xml:space="preserve"
         style="font-style:normal;font-weight:normal;font-size:19.17752075px;line-height:1.25;font-family:sans-serif;letter-spacing:0px;word-spacing:0px;fill:#000000;fill-opacity:1;stroke:none;stroke-width:0.47943801"
         x="232.44153"
         y="261.67935"
         id="text1251"><tspan
           sodipodi:role="line"
           id="tspan1249"
           x="232.44153"
           y="261.67935"
           style="font-style:normal;font-variant:normal;font-weight:normal;font-stretch:normal;font-size:2.55700302px;font-family:'NS Sign';-inkscape-font-specification:'NS Sign';fill:#ffffff;fill-opacity:1;stroke-width:0.47943801">1</tspan></text>
      <text
         id="text1255"
         y="267.62238"
         x="232.62383"
         style="font-style:normal;font-weight:normal;font-size:19.17752075px;line-height:1.25;font-family:sans-serif;letter-spacing:0px;word-spacing:0px;fill:#000000;fill-opacity:1;stroke:none;stroke-width:0.47943801"
         xml:space="preserve"><tspan
           style="font-style:normal;font-variant:normal;font-weight:normal;font-stretch:normal;font-size:2.55700302px;font-family:'NS Sign';-inkscape-font-specification:'NS Sign';fill:#ffffff;fill-opacity:1;stroke-width:0.47943801"
           y="267.62238"
           x="232.62383"
           id="tspan1253"
           sodipodi:role="line">2</tspan></text>
    </g>
  </g>
</svg>
