<svg xmlns="http://www.w3.org/2000/svg" xmlns:xlink="http://www.w3.org/1999/xlink" width="23" height="23.976" viewBox="0 0 23 23.976"><defs><style>.a{fill:none;}.b{clip-path:url(#a);}.c{clip-path:url(#c);}.d{opacity:0.1;isolation:isolate;}.e{clip-path:url(#d);}</style><clipPath id="a"><rect class="a" x="2" y="14.976" width="6" height="10"/></clipPath><clipPath id="c"><rect class="a" x="8" y="14.976" width="6" height="10"/></clipPath><clipPath id="d"><rect class="a" x="15" y="14.976" width="6" height="10"/></clipPath></defs><title>rush-2--small</title><path d="M4.511,5.476a2.778,2.778,0,0,1-2.368-1.34A2.745,2.745,0,0,1,3.085.365a2.83,2.83,0,0,1,3.771.953A2.74,2.74,0,0,1,4.511,5.476ZM4.49.976A1.745,1.745,0,0,0,3,3.621a1.791,1.791,0,0,0,2.4.608A1.755,1.755,0,0,0,4.49.976Z"/><path d="M8.5,15.476a.5.5,0,0,1-.5-.5v-5.5a1.5,1.5,0,0,0-1.5-1.5H6a.5.5,0,1,1,0-1h.5A2.5,2.5,0,0,1,9,9.476v5.5A.5.5,0,0,1,8.5,15.476Z"/><path d="M.5,15.476a.5.5,0,0,1-.5-.5v-5.5a2.5,2.5,0,0,1,2.5-2.5H3a.5.5,0,1,1,0,1H2.5A1.5,1.5,0,0,0,1,9.476v5.5A.5.5,0,0,1,.5,15.476Z"/><g class="b"><path d="M6.5,23.976a.5.5,0,0,1-.5-.5v-9.5a.5.5,0,0,1,1,0v9.5A.5.5,0,0,1,6.5,23.976Z"/></g><g class="b"><path d="M2.5,23.976a.5.5,0,0,1-.5-.5v-9.5a.5.5,0,0,1,1,0v9.5A.5.5,0,0,1,2.5,23.976Z"/></g><path d="M11.511,5.476a2.776,2.776,0,0,1-2.368-1.34A2.745,2.745,0,0,1,10.085.365a2.83,2.83,0,0,1,3.771.953,2.741,2.741,0,0,1-2.345,4.158ZM11.49.976A1.745,1.745,0,0,0,10,3.621a1.79,1.79,0,0,0,2.4.608A1.754,1.754,0,0,0,11.49.976Z"/><path d="M15.5,15.976a.5.5,0,0,1-.5-.5v-6a1.5,1.5,0,0,0-1.5-1.5H13a.5.5,0,1,1,0-1h.5a2.5,2.5,0,0,1,2.5,2.5v6A.5.5,0,0,1,15.5,15.976Z"/><g class="c"><path d="M13.5,23.976a.5.5,0,0,1-.5-.5v-9.5a.5.5,0,0,1,1,0v9.5A.5.5,0,0,1,13.5,23.976Z"/></g><path class="d" d="M18.511,5.476a2.776,2.776,0,0,1-2.368-1.34A2.745,2.745,0,0,1,17.085.365a2.83,2.83,0,0,1,3.771.953,2.741,2.741,0,0,1-2.345,4.158ZM18.49.976A1.745,1.745,0,0,0,17,3.621a1.791,1.791,0,0,0,2.4.608A1.754,1.754,0,0,0,18.49.976Z"/><path class="d" d="M22.5,15.976a.5.5,0,0,1-.5-.5v-6a1.5,1.5,0,0,0-1.5-1.5H20a.5.5,0,1,1,0-1h.5a2.5,2.5,0,0,1,2.5,2.5v6A.5.5,0,0,1,22.5,15.976Z"/><g class="d"><g class="e"><path d="M20.5,23.976a.5.5,0,0,1-.5-.5v-9.5a.5.5,0,0,1,1,0v9.5A.5.5,0,0,1,20.5,23.976Z"/></g></g></svg>