<svg xmlns="http://www.w3.org/2000/svg" xmlns:xlink="http://www.w3.org/1999/xlink" width="23" height="23.985" viewBox="0 0 23 23.985"><defs><style>.a{fill:none;}.b{clip-path:url(#a);}.c{opacity:0.1;isolation:isolate;}.d{clip-path:url(#c);}.e{clip-path:url(#d);}</style><clipPath id="a"><rect class="a" x="2" y="14.985" width="6" height="10"/></clipPath><clipPath id="c"><rect class="a" x="8" y="14.985" width="6" height="10"/></clipPath><clipPath id="d"><rect class="a" x="15" y="14.985" width="6" height="10"/></clipPath></defs><title>rush-1--small</title><path d="M4.5,5.485a2.813,2.813,0,0,1-2.4-1.3,3.861,3.861,0,0,1-.3-2.1A3.147,3.147,0,0,1,3.1.385a2.789,2.789,0,0,1,3.8,1,2.581,2.581,0,0,1,.3,2.1A2.982,2.982,0,0,1,6,5.185,4.013,4.013,0,0,1,4.5,5.485Zm0-4.5a2.92,2.92,0,0,0-.9.2,2.1,2.1,0,0,0-.8,1.1,1.907,1.907,0,0,0,.2,1.3,1.779,1.779,0,0,0,2.4.6,1.548,1.548,0,0,0,.8-1.1,1.907,1.907,0,0,0-.2-1.3A1.763,1.763,0,0,0,4.5.985Z"/><path d="M8.5,15.485a.472.472,0,0,1-.5-.5v-5.5a1.538,1.538,0,0,0-1.5-1.5H6a.5.5,0,1,1,0-1h.5A2.476,2.476,0,0,1,9,9.485v5.5A.472.472,0,0,1,8.5,15.485Z"/><path d="M.5,15.485a.472.472,0,0,1-.5-.5v-5.5a2.476,2.476,0,0,1,2.5-2.5H3a.5.5,0,1,1,0,1H2.5A1.538,1.538,0,0,0,1,9.485v5.5A.472.472,0,0,1,.5,15.485Z"/><g class="b"><path d="M6.5,23.985a.472.472,0,0,1-.5-.5v-9.5a.5.5,0,0,1,1,0v9.5A.472.472,0,0,1,6.5,23.985Z"/></g><g class="b"><path d="M2.5,23.985a.472.472,0,0,1-.5-.5v-9.5a.472.472,0,0,1,.5-.5.472.472,0,0,1,.5.5v9.5A.472.472,0,0,1,2.5,23.985Z"/></g><path class="c" d="M11.5,5.485a2.813,2.813,0,0,1-2.4-1.3,2.581,2.581,0,0,1-.3-2.1,2.742,2.742,0,0,1,1.3-1.7,2.789,2.789,0,0,1,3.8,1,2.581,2.581,0,0,1,.3,2.1,2.742,2.742,0,0,1-1.3,1.7A3.194,3.194,0,0,1,11.5,5.485Zm0-4.5a2.92,2.92,0,0,0-.9.2,1.548,1.548,0,0,0-.8,1.1,1.907,1.907,0,0,0,.2,1.3,1.779,1.779,0,0,0,2.4.6,1.548,1.548,0,0,0,.8-1.1,1.907,1.907,0,0,0-.2-1.3A1.763,1.763,0,0,0,11.5.985Z"/><path class="c" d="M15.5,15.985a.472.472,0,0,1-.5-.5v-6a1.538,1.538,0,0,0-1.5-1.5H13a.5.5,0,1,1,0-1h.5a2.476,2.476,0,0,1,2.5,2.5v6A.472.472,0,0,1,15.5,15.985Z"/><g class="d"><path class="c" d="M13.5,23.985a.472.472,0,0,1-.5-.5v-9.5a.5.5,0,0,1,1,0v9.5A.472.472,0,0,1,13.5,23.985Z"/></g><path class="c" d="M18.5,5.485a2.813,2.813,0,0,1-2.4-1.3,2.581,2.581,0,0,1-.3-2.1,2.742,2.742,0,0,1,1.3-1.7,2.789,2.789,0,0,1,3.8,1,2.581,2.581,0,0,1,.3,2.1,2.742,2.742,0,0,1-1.3,1.7A3.194,3.194,0,0,1,18.5,5.485Zm0-4.5a2.92,2.92,0,0,0-.9.2,1.548,1.548,0,0,0-.8,1.1,1.907,1.907,0,0,0,.2,1.3,1.779,1.779,0,0,0,2.4.6,1.548,1.548,0,0,0,.8-1.1,1.907,1.907,0,0,0-.2-1.3A1.763,1.763,0,0,0,18.5.985Z"/><path class="c" d="M22.5,15.985a.472.472,0,0,1-.5-.5v-6a1.538,1.538,0,0,0-1.5-1.5H20a.5.5,0,1,1,0-1h.5a2.476,2.476,0,0,1,2.5,2.5v6A.472.472,0,0,1,22.5,15.985Z"/><g class="c"><g class="e"><path d="M20.5,23.985a.472.472,0,0,1-.5-.5v-9.5a.5.5,0,0,1,1,0v9.5A.472.472,0,0,1,20.5,23.985Z"/></g></g></svg>